/* XPM */
static char *_b034e061b534226e762dbeedd7393d5DOQHIA7tqUbt4iv4[] = {
/* columns rows colors chars-per-pixel */
"64 64 256 2 ",
"   c black",
".  c #0000A8",
"X  c #00A800",
"o  c #00A8A8",
"O  c #A80000",
"+  c #A800A8",
"@  c #A85400",
"#  c gray66",
"$  c gray33",
"%  c #5454FC",
"&  c #54FC54",
"*  c #54FCFC",
"=  c #FC5454",
"-  c #FC54FC",
";  c #FCFC54",
":  c gray99",
">  c #ECECEC",
",  c gainsboro",
"<  c #D0D0D0",
"1  c #C0C0C0",
"2  c #B4B4B4",
"3  c gray66",
"4  c #989898",
"5  c gray55",
"6  c #7C7C7C",
"7  c gray44",
"8  c #646464",
"9  c gray33",
"0  c #484848",
"q  c gray22",
"w  c #2C2C2C",
"e  c #202020",
"r  c #FC0000",
"t  c #EC0000",
"y  c #E00000",
"u  c #D40000",
"i  c #C80000",
"p  c #BC0000",
"a  c #B00000",
"s  c #A40000",
"d  c #980000",
"f  c #880000",
"g  c #7C0000",
"h  c #700000",
"j  c #640000",
"k  c #580000",
"l  c #4C0000",
"z  c #400000",
"x  c #FCD8D8",
"c  c #FCB8B8",
"v  c #FC9C9C",
"b  c #FC7C7C",
"n  c #FC5C5C",
"m  c #FC4040",
"M  c #FC2020",
"N  c #FC0000",
"B  c #FCA85C",
"V  c #FC9840",
"C  c #FC8820",
"Z  c #FC7800",
"A  c #E46C00",
"S  c #CC6000",
"D  c #B45400",
"F  c #9C4C00",
"G  c #FCFCD8",
"H  c #FCFCB8",
"J  c #FCFC9C",
"K  c #FCFC7C",
"L  c #FCF85C",
"P  c #FCF440",
"I  c #FCF420",
"U  c #FCF400",
"Y  c #E4D800",
"T  c #CCC400",
"R  c #B4AC00",
"E  c #9C9C00",
"W  c #848400",
"Q  c #706C00",
"!  c #585400",
"~  c #404000",
"^  c #D0FC5C",
"/  c #C4FC40",
"(  c #B4FC20",
")  c #A0FC00",
"_  c #90E400",
"`  c #80CC00",
"'  c #74B400",
"]  c #609C00",
"[  c #D8FCD8",
"{  c #BCFCB8",
"}  c #9CFC9C",
"|  c #80FC7C",
" . c #60FC5C",
".. c #40FC40",
"X. c #20FC20",
"o. c #00FC00",
"O. c #00FC00",
"+. c #00EC00",
"@. c #00E000",
"#. c #00D400",
"$. c #04C800",
"%. c #04BC00",
"&. c #04B000",
"*. c #04A400",
"=. c #049800",
"-. c #048800",
";. c #047C00",
":. c #047000",
">. c #046400",
",. c #045800",
"<. c #044C00",
"1. c #044000",
"2. c #D8FCFC",
"3. c #B8FCFC",
"4. c #9CFCFC",
"5. c #7CFCF8",
"6. c #5CFCFC",
"7. c #40FCFC",
"8. c #20FCFC",
"9. c #00FCFC",
"0. c #00E4E4",
"q. c #00CCCC",
"w. c #00B4B4",
"e. c #009C9C",
"r. c #008484",
"t. c #007070",
"y. c #005858",
"u. c #004040",
"i. c #5CBCFC",
"p. c #40B0FC",
"a. c #20A8FC",
"s. c #009CFC",
"d. c #008CE4",
"f. c #007CCC",
"g. c #006CB4",
"h. c #005C9C",
"j. c #D8D8FC",
"k. c #B8BCFC",
"l. c #9C9CFC",
"z. c #7C80FC",
"x. c #5C60FC",
"c. c #4040FC",
"v. c #2024FC",
"b. c #0004FC",
"n. c #0000FC",
"m. c #0000EC",
"M. c #0000E0",
"N. c #0000D4",
"B. c #0000C8",
"V. c #0000BC",
"C. c #0000B0",
"Z. c #0000A4",
"A. c #000098",
"S. c #000088",
"D. c #00007C",
"F. c #000070",
"G. c #000064",
"H. c #000058",
"J. c #00004C",
"K. c #000040",
"L. c #282828",
"P. c #FCE034",
"I. c #FCD424",
"U. c #FCCC18",
"Y. c #FCC008",
"T. c #FCB400",
"R. c #B420FC",
"E. c #A800FC",
"W. c #9800E4",
"Q. c #8000CC",
"!. c #7400B4",
"~. c #60009C",
"^. c #500084",
"/. c #440070",
"(. c #340058",
"). c #280040",
"_. c #FCD8FC",
"`. c #FCB8FC",
"'. c #FC9CFC",
"]. c #FC7CFC",
"[. c #FC5CFC",
"{. c #FC40FC",
"}. c #FC20FC",
"|. c #FC00FC",
" X c #E000E4",
".X c #C800CC",
"XX c #B400B4",
"oX c #9C009C",
"OX c #840084",
"+X c #6C0070",
"@X c #580058",
"#X c #400040",
"$X c #FCE8DC",
"%X c #FCE0D0",
"&X c #FCD8C4",
"*X c #FCD4BC",
"=X c #FCCCB0",
"-X c #FCC4A4",
";X c #FCBC9C",
":X c #FCB890",
">X c #FCB080",
",X c #FCA470",
"<X c #FC9C60",
"1X c #F0945C",
"2X c #E88C58",
"3X c #DC8854",
"4X c #D08050",
"5X c #C87C4C",
"6X c #BC7848",
"7X c #B47044",
"8X c #A86840",
"9X c #A0643C",
"0X c #9C6038",
"qX c #905C34",
"wX c #885830",
"eX c #80502C",
"rX c #744C28",
"tX c #6C4824",
"yX c #5C4020",
"uX c #543C1C",
"iX c #483818",
"pX c #403018",
"aX c #382C14",
"sX c #28200C",
"dX c #600064",
"fX c #006464",
"gX c #006060",
"hX c #00001C",
"jX c #00002C",
"kX c #302410",
"lX c #480048",
"zX c #500050",
"xX c #000034",
"cX c gray11",
"vX c #4C4C4C",
"bX c gray36",
"nX c gray25",
"mX c gray19",
"MX c #343434",
"NX c #D8F4F4",
"BX c #B8E8E8",
"VX c #9CDCDC",
"CX c #74C8C8",
"ZX c #48C0C0",
"AX c #20B4B4",
"SX c #20B0B0",
"DX c #00A4A4",
"FX c #009898",
"GX c #008C8C",
"HX c #008484",
"JX c #007C7C",
"KX c #007878",
"LX c #007474",
"PX c #007070",
"IX c #006C6C",
"UX c #980088",
/* pixels */
"nXnXq q nX$ vXmXL.mXnXq q 0 nXnX0 w nX8 7 8 6 7 nXnXmXnX6 6 8 vX0 0 q e e nXvXbXbX$ 0 vXvX$ vX8 8 vX$ bX$ 8 $ w mXvX8 $ q L.w q ",
"nXq w L.mX0 q nXnXvXvX0 0 0 0 0 nXw nXbX8 7 5 7 nXvXvX8 5 6 $ nX0 vXnXw mXnX0 vXvX0 vXvX0 nXmXq nXq q nXw mXw w q 0 nXq mXmXq q ",
"nXq L.e q 0 0 vXvXbXbX0 q 0 $ vXq w 0 8 7 6 5 bX0 $ $ 8 6 bXnXmXnXnXmXmXnXvX$ vX0 0 vX0 nXw e L.w L.w mXmXq nXnXnXnXw w mXq nXnX",
"nXw e L.bX8 8 vXnXvXvXq nXbX8 $ q mXvX7 6 6 7 $ $ bXvX8 bXq L.L.mXw w q 0 bXbXvXnXnXnXnXq e L.mXmXq nXnXq nX$ bXvXq q 0 0 nX0 vX",
"q L.cXmXbX$ vX0 0 $ vXnXvX7 7 vXmXq vX7 7 $ bX8 8 bXvXvXnXq mXmXnXmXq 0 $ bXvX0 nX0 0 0 mXe mXvXvXbXvX0 q nX8 7 $ 0 bX8 0 nX$ $ ",
"cXcXe 0 bXvXvXvX$ bX$ 0 bX7 bXnXw nX$ 8 bX0 8 8 bX0 vXvXnXnX0 0 nXnXnXvXbX$ vXnXvXbXbX0 w w $ 8 bX$ vX0 q 0 8 bX0 w mXmXq 0 vXmX",
"cXe nX$ 7 8 7 7 8 7 7 8 8 8 nXw w 0 bX8 bX8 8 bX0 nXvX0 q nXnXnXnX0 vX$ vX0 0 nX0 vX0 w w 0 vX0 nXnXnXmXq 0 $ 0 q e q 0 vX$ mXL.",
"L.mX8 7 7 7 7 7 bX8 $ vX0 nXw L.q vXbXbXvXbXbX$ 0 nX0 nXmXq nX0 vXbXbXvX0 vX0 nXq nXnXq vXvX0 vX0 nX0 0 0 nXnXmXL.L.vX$ bXbXnXq ",
"mXvX6 6 7 8 vXnXmXmXw w L.L.e w nX0 0 0 $ 7 vX0 nXq mXq mXq 0 vXbXbXvX0 0 vXvXnXnX0 nXq $ $ bXbXvXq vX$ 0 mXmXmXw mXvXnX0 bXvXq ",
"vX6 6 6 bXvXq w L.e e e L.w w q nXq q $ 7 8 nXq q mXw w w mX0 vXvXvXvX0 0 vXvXvXvX0 mXmXvXvX0 q mXmXvX0 mXmX0 vX0 0 8 $ bX8 0 q ",
"vX7 7 8 nXq mXw e e w mXnXnXq nXq nX8 6 7 $ nXvX0 mXw w L.w 0 vXvXvXvXvXvXvXbXbX$ q w nXvXvXq nX0 0 $ 0 nX0 $ 8 $ 0 $ vXvXvXnX0 ",
"q q q L.e L.w L.cXw vXbX$ 0 nXvX$ bX6 6 8 vXnX0 nXw w L.L.nX8 8 bXbX$ $ vXbX7 8 bXq nX8 $ 0 0 bXvX0 bXvX0 bX7 6 0 q vX0 q nXvXvX",
"w mXw cXe w L.e e q 8 7 bX0 0 bXbXbX7 7 $ nXq mXw w L.w q 8 6 8 bX$ vX$ bX7 7 8 $ q q vX0 nX0 vXnX$ 8 nXnX$ 7 8 q nXvXvX$ 7 vXnX",
"nXnXw e w nXq L.q 8 7 8 $ 0 0 $ nXnX0 q nXq w w w w w nXvX7 8 nX0 vXbXbXbX8 8 $ nXw mXvX0 0 0 0 8 7 $ nXnX0 vXq q 0 nX0 bX6 vXnX",
"bX0 w w mXq mXq 7 6 7 $ 0 nXvX$ nXq q nXvXnXL.w q mXq 0 bX7 8 nXvX0 vXnXnX0 0 nXw w mXnXq 0 0 vX8 8 nXmXq 0 vX0 nXmXq $ 7 7 bX0 ",
"vXnXmXq nX0 0 7 5 7 vXnXq nX$ $ nXnX$ 8 vXw L.nXnX0 vX8 8 8 bXvX$ bXvXvX0 0 0 q L.w w mX0 bXbXvXbX0 mXw mXvXvXvXnXq 0 bX7 7 bX0 ",
"mXmXnXnXnX0 bX6 6 vXq mXq 0 $ vXnXvXbX$ q w nX$ vXvXbX8 bXbX$ vX8 7 8 bX$ 0 nXw L.w mX$ 7 7 $ nX0 0 mXw q bXvXnXq nXvX$ $ $ nXmX",
"w q mXL.w 0 bX8 $ nXnXnXnXvX0 q nX0 0 0 nXvX7 bXq nXvXbXbX$ 0 bX6 6 8 vX0 mXw w w w 0 7 bXnXw w 0 nXw w nXbXnXmXnXvXvX0 nXnXq q ",
"nX0 q w nX8 8 8 bXvX0 0 0 0 nXnXnXq nX0 vXvX8 $ vXbX8 vX0 0 vX6 6 7 $ q L.w mXw w q $ 8 nXw w nXvXw cXw 0 bXnXnXbX8 bXq mXq 0 0 ",
"q 0 0 q $ 7 bXvXvXvX0 nXnXnXq mXmXmX0 vXvX0 7 8 $ bXvXnX8 6 7 7 6 $ nXL.w nXq w mXvXbXvXmXw q q w e L.0 7 8 nXbX7 8 $ q nXbX7 0 ",
"L.mXnX0 8 7 bX0 vX0 mXw w w L.w q 0 8 8 0 $ 7 vXnXvXvX7 6 7 vX$ vXq w e mXnXnXq 0 vXvXnXL.e e L.e w nX8 7 bXnXbXbXnXmXmX0 7 8 nX",
"e q vX8 bX8 8 bX0 w cXcXe e w nXvXbX7 8 vX8 $ q q nX0 vX$ nXL.w L.e e e mX0 nXnXnX0 bX$ w cXe w nXq q 0 $ nXw q nXq q nXnXbX0 w ",
"mXvX8 8 bXbX0 q w cXcXcXe w nXvX8 8 7 8 8 7 0 w q nXq 0 bXq e cXcXcXL.q q nXnX0 0 bX7 0 e e mXnXvX0 vXbXbXw w $ 6 7 nXbX8 7 nXw ",
"0 vXvXvX$ vX0 w L.e e w nXvX7 7 bX8 7 7 7 $ q nXvX0 q vXq e cXL.w q vX0 mXq 0 vX$ bX8 w e q 0 vXbX$ bXvX0 q bX6 6 $ nX7 8 $ mXw ",
"nXnXmXnXvXvXnXL.e L.w vX6 4 4 8 vXbX7 6 7 nXnXvXvXnXnXnXe cXw mXw vXbXq w 0 bX8 8 bX$ L.w 0 nX0 bX0 nXw nXbX6 6 bXnXbX7 0 w L.L.",
"w w mXq nX0 mXe L.L.mX8 5 5 7 nXnXvX8 7 vXq nXnXmXw mXL.e mX0 q w 0 q w q 8 7 8 bX0 mXL.nXnXmXnXvXq w mX8 6 4 5 7 7 6 bXmXq nXw ",
"0 0 vX$ vXnXL.L.w w mX0 $ vXmXL.w mX0 0 mXq nXmXw w mXe cXq nXw w nXq nXbX7 8 vXnXq q q nXw w nXvXnXnXvX7 6 6 7 $ bX7 nXw 0 nXnX",
"vXnXnXnXq q mXnX0 0 8 8 7 vXq w nXbX6 7 0 vX0 w L.w q L.q 8 7 0 q nXnX8 7 7 bX0 vX8 vXvXvXq nX7 7 $ $ $ 6 6 bXnXw nXnXL.q vXq nX",
"nXmXnXq nXnXnXnXq q nX0 0 q mXmXvX7 6 7 0 0 nXw mXnXq w $ 7 7 vXmXmXvX7 8 vXvXbX$ 8 $ bXvXq nX8 bX0 nXnX8 vXnXw w mXw w q nXmXq ",
"q q nXmXnXnX0 0 mXnX$ bXvXvXnXq vX8 7 bX0 0 mXq 0 nXmXnX8 7 8 $ nXnX$ 8 $ 0 bXbXnX$ 8 $ q w mXnXq nXnX0 vX0 w L.w q nXmXq nXq w ",
"mXw mXq nXnXnXmXw $ 7 vXbX8 0 vX7 5 5 bX$ 7 vXnXnXmXnXbX7 7 $ 0 mXq vXbXvXnXvXnXq 6 6 nXe e w 0 0 nXnXnXvXnXL.w nXvX0 mXq 0 nXmX",
"w q vX$ 0 vXnXq mX$ bXnXvXbXvX$ 7 6 8 q nXnXmXmXnXnX$ 6 7 vXq mXmXnX0 bX0 q nX0 vX6 7 L.cXL.vX6 7 bXbXbXvXq w mX0 vXnXq 0 vXnXw ",
"e mX0 vXnX0 0 vXnX$ 8 vXvX$ vXvX8 7 nXnXbXnXmXmXq nX$ 7 bXnX0 vX0 vXbX8 vX0 vXbX$ bXnXe w nX8 6 bXnXvX0 mXmXq q $ bXnXnXvX0 mXL.",
"w mXq w mXnX0 nXw 0 $ nXnX0 nXq 0 vXmX0 bX0 q mXmXnX0 $ vX0 bX0 nXvXvXq mXnXnXvXvXvXq w nXvX$ $ w w nXL.e mXq 0 8 bXq q vXmXw q ",
"nXmXq 0 $ vXnXq w nXnXmXnXnXw nXbXbX0 8 7 nXw q $ 6 6 bXnXmXw L.w nXq mXvXbX0 8 7 vXmXq nXq q q q vXbXq q 0 0 0 vXvXvX0 nXmXnX7 ",
"0 nXvXvXvX0 nXmXq nXw q vXq nX8 7 vXnX0 nXw L.nX7 5 7 vXnX0 0 q q 0 vX8 7 8 bX7 8 nXmXnXnX0 vX0 vX7 8 nX0 $ $ q q nX0 nXq 0 vX6 ",
"nXnXvX0 nXnXnXw L.w w mXq mXvX7 8 0 0 vXvXmXq bX6 6 8 vX0 0 0 vX$ 8 6 8 $ 0 0 bX0 L.mXvX7 7 8 vX$ $ 0 q vX7 nXw 0 nXnXnX0 0 vXbX",
"mX0 vXvX0 0 nXw e e L.mX$ vX8 8 bXvXvXvXbXvX0 6 6 8 vXq nX0 vXvXvX7 7 vXnXnXnXvXw L.vX7 7 bX0 nXnX0 vX0 vXbXmXnXvXnXvX8 $ 0 nXnX",
"mXvX$ vX0 0 0 w e L.nX7 6 8 $ bXbXvX0 bX7 0 vX7 8 nXmXmXnXvXvXmXq vXvXnXnXnX0 0 w nX7 7 7 bXq nX0 bX$ nXvXbXnXnXvXq bX7 bXvXnXmX",
"0 0 vXvXvX$ 0 q w mX7 5 7 vXvXbX$ 0 q vX$ q 0 vX0 nXnX0 vXvXq w vXbX0 q mXq vX$ 0 8 6 6 7 0 w 0 0 vX0 q vX$ 0 nX0 vX7 7 vX0 w q ",
"nXvX$ bXbXbXnXw w 0 6 6 0 0 $ vXnXmXq vX0 nX0 vXvXnXnXnXnXq e w $ vXnXvX0 vXbXvXq bX7 bXnXw mXnXmXq q w w mXnXq nXvX8 8 0 q w nX",
"mX0 vXbXbX0 w w vX6 5 7 nXvX$ 0 q 0 bXbXvXnXq q nXnXnX0 0 mXL.q nXmXmXnXnX0 0 q nX7 vXmXmX0 vXnXnX0 vXnXq vX8 nXmXvX$ q e L.mXmX",
"mXnXnXbXbXq w nX7 6 7 bXnX0 nXmXnXbXvXnXmXw mXq 0 0 nXnXnXmXw q mXq nXnX0 nXmXw 0 bX0 nX8 bX0 nXvX8 bX0 vX8 bXq q vX0 L.L.0 vXq ",
"0 0 vX7 vXmXmXvX8 7 8 0 q nXnXvX7 bXnXq w w q 0 $ vX0 0 nXq vXvX0 7 6 7 bXnXmXq bX8 0 nX8 0 q 0 vXvXvXvXbXbXvXnXnX0 mXL.nX8 8 vX",
"vXvX8 6 vXq q 0 vX$ vXq mX0 vX8 7 vXq mXq nX0 bX8 bXvX0 nXq 0 vX0 6 6 8 vXmXq 0 7 6 bXnX0 q q 0 mXq 0 vXvX0 mXmXnXnXnXnXvX$ vXvX",
"vX$ 7 7 nXq q nX0 0 nXw w 0 vXnXnXq w nXvXbXvXbX8 8 vXq w L.w nX0 6 7 8 vX0 vX8 6 6 vXnX0 0 0 nXw nXvX0 mXw L.q 0 0 vX0 vXvX$ vX",
"$ 8 7 $ q w mXnX0 vXnXmXvXbXnXmX0 0 nXvX$ $ vXbXbXvXnXw mXmXq $ 8 6 8 $ $ vXbX8 7 8 nXnX$ vXnXmXq bXbXnXmXw w nXnXnXnXq nX0 $ $ ",
"vX8 $ nXnXvXvXbX0 nX0 nXvXvXq vX7 bX0 nXnXvX$ bXnXq q q 0 vXnXbX7 bXvXvXvX0 vXbXbX$ vXvX$ 0 nXq 0 bX0 mXL.w nX0 nXnXq nXvXvX0 0 ",
"vXvXvXnXvX$ vX$ nXvXvXq nXnX0 7 6 bXq nX$ bXbXvXnX0 0 0 0 0 nX7 6 vX$ bX0 q q mXq nXnXnXnXnXnXnX0 0 w w q vX$ 0 mXw nXq 0 nXvXvX",
"vX$ $ nXvXvX0 bX8 8 0 q q nX8 6 7 nXnX$ 8 8 $ vXvXbXbXvXq vXbX7 $ q 0 vXq mX0 vX0 nXnXnX0 0 0 0 nXw w q nXnXmXL.w 0 nXnX$ 8 8 bX",
"0 vXvX0 0 nX0 $ vXvXnXq mXnXbX7 0 q $ 7 7 8 bX8 8 bX8 $ 0 $ bX$ q w q nXmXnXvXvX0 nX0 vX0 nX0 nXw w q q q w w mX0 $ vX7 6 7 7 bX",
"nXnXvXnXq nXvXvXvXbX$ nXw q $ 0 w q vX8 8 7 7 7 bXbX8 vXnXvXbX0 mXnXbX7 $ bX$ nXnXvXvX0 mXnX0 mXe w w L.w nXbXbXvXnXnX7 8 $ 0 nX",
"nXvXbXvXnX0 vXbX8 7 bXnXnXnX0 mXw mXq 0 8 7 8 bXnXvXvXq nX$ 8 0 q 0 8 7 8 vX0 nX0 0 nXnXnX$ nXL.w q w L.0 7 6 bXnXnX0 vX0 nXnXnX",
"vX$ $ $ vXvX8 8 8 bXvXnXnXnX0 $ 8 7 7 6 5 8 vX0 nX$ nXmX0 vX$ vX0 bX7 7 vXq nXvX0 w w nXnXmXL.L.mXmXw q 7 6 8 q w nXnXnX0 0 0 nX",
"vX0 vX$ 0 0 vX$ vXnXmXmXq w 0 bXbX8 7 6 6 vX0 0 0 nXw mXnXvX$ vX0 vX7 8 q w nXvXnXw nXnXL.cXe w w w nX$ 7 8 q w q q nX0 vX0 nXnX",
"nX0 vX$ nX0 vXvX0 mXw w w w 0 bXvXnXvXvX0 q nXnXmXmXmXq nX0 vX0 nX0 bX0 q 0 vX0 w w q mXL.e w w q nXvX$ vXnXw mXq nXvXq nXnXnX0 ",
"nXvXbX$ 0 vXvXvX$ $ 0 nXmXnXvX$ bX8 7 bX0 nXq mXw mXw mXnX0 nXq q nXvXvX0 0 vXbXq q nXnXq mXw 0 6 7 $ 0 0 mXq nXnXnXnXq vX$ vXvX",
"0 bX8 vX0 vXvXbXbX0 q mXmXnX0 8 7 7 8 bX0 q mXmXw w w q q q mXw w mXnXvXvXmXnX0 mXmXnXnX0 q q 8 6 7 bX$ 8 nXvX0 nX0 vX$ 7 7 bXvX",
"vX8 8 0 nXvXvX$ vXw w nX0 bX6 5 6 8 bX0 mXq nXq q q nXq mXw w w mXnXvX$ 0 L.w w L.L.q vXvXmXnX7 6 7 0 $ vXnXvXvXvX$ bX8 8 $ 0 0 ",
"$ bXbXq nX0 vXvXnXw mX0 bX7 6 7 $ nXnXmXq 0 $ $ vXnXnXq q w w q q nXvXbXnXw L.L.w q vXbXvX0 8 5 7 vX0 bXnXnXvX0 vX$ $ vX0 0 0 $ ",
"bX$ 0 mXmXq 0 0 mXw nXbX8 8 $ nXnX0 q w w mX0 $ vX0 q nX0 nXq mXnXbX7 7 0 mXw w q $ 8 bXvXnX7 6 0 nXbXbX0 nX0 nXnX0 nXq nXvXbX8 ",
"vXnXmXw L.w q q mXq vXbX8 $ 0 0 vXvXq nXnX0 bXnXmXq nX0 vX0 mXq $ 7 7 8 0 q q q 0 bX$ vXvXbX6 bXq 0 bXvX0 nXnXq nX0 nX0 $ 8 7 7 ",
"0 0 nXmXw mXq q nXnX$ 8 8 bXbXbX8 8 bX8 bX$ vXnXnXq nX0 0 mXw nXbX7 7 $ 0 nXnXnXnX0 0 $ vX8 8 nXmX0 vXvXnXq q q nX0 vXbX8 bXbX$ ",
"vXvXvX0 nXnXnXnX0 0 8 7 8 7 8 8 8 8 8 8 0 q w nXvX$ vXmXw w w nX8 6 7 0 nX0 vX0 0 nX8 7 8 7 bXw q vXvXnXw q q q 0 vXvXbX$ 0 0 nX"
};
