/* XPM */
static char *_86f867a08bc412cc8a3dadec1fcae5av8kWUXwJi5L4X2ms[] = {
/* columns rows colors chars-per-pixel */
"64 64 256 2 ",
"   c black",
".  c #0000A8",
"X  c #00A800",
"o  c #00A8A8",
"O  c #A80000",
"+  c #A800A8",
"@  c #A85400",
"#  c gray66",
"$  c gray33",
"%  c #5454FC",
"&  c #54FC54",
"*  c #54FCFC",
"=  c #FC5454",
"-  c #FC54FC",
";  c #FCFC54",
":  c gray99",
">  c #ECECEC",
",  c gainsboro",
"<  c #D0D0D0",
"1  c #C0C0C0",
"2  c #B4B4B4",
"3  c gray66",
"4  c #989898",
"5  c gray55",
"6  c #7C7C7C",
"7  c gray44",
"8  c #646464",
"9  c gray33",
"0  c #484848",
"q  c gray22",
"w  c #2C2C2C",
"e  c #202020",
"r  c #FC0000",
"t  c #EC0000",
"y  c #E00000",
"u  c #D40000",
"i  c #C80000",
"p  c #BC0000",
"a  c #B00000",
"s  c #A40000",
"d  c #980000",
"f  c #880000",
"g  c #7C0000",
"h  c #700000",
"j  c #640000",
"k  c #580000",
"l  c #4C0000",
"z  c #400000",
"x  c #FCD8D8",
"c  c #FCB8B8",
"v  c #FC9C9C",
"b  c #FC7C7C",
"n  c #FC5C5C",
"m  c #FC4040",
"M  c #FC2020",
"N  c #FC0000",
"B  c #FCA85C",
"V  c #FC9840",
"C  c #FC8820",
"Z  c #FC7800",
"A  c #E46C00",
"S  c #CC6000",
"D  c #B45400",
"F  c #9C4C00",
"G  c #FCFCD8",
"H  c #FCFCB8",
"J  c #FCFC9C",
"K  c #FCFC7C",
"L  c #FCF85C",
"P  c #FCF440",
"I  c #FCF420",
"U  c #FCF400",
"Y  c #E4D800",
"T  c #CCC400",
"R  c #B4AC00",
"E  c #9C9C00",
"W  c #848400",
"Q  c #706C00",
"!  c #585400",
"~  c #404000",
"^  c #D0FC5C",
"/  c #C4FC40",
"(  c #B4FC20",
")  c #A0FC00",
"_  c #90E400",
"`  c #80CC00",
"'  c #74B400",
"]  c #609C00",
"[  c #D8FCD8",
"{  c #BCFCB8",
"}  c #9CFC9C",
"|  c #80FC7C",
" . c #60FC5C",
".. c #40FC40",
"X. c #20FC20",
"o. c #00FC00",
"O. c #00FC00",
"+. c #00EC00",
"@. c #00E000",
"#. c #00D400",
"$. c #04C800",
"%. c #04BC00",
"&. c #04B000",
"*. c #04A400",
"=. c #049800",
"-. c #048800",
";. c #047C00",
":. c #047000",
">. c #046400",
",. c #045800",
"<. c #044C00",
"1. c #044000",
"2. c #D8FCFC",
"3. c #B8FCFC",
"4. c #9CFCFC",
"5. c #7CFCF8",
"6. c #5CFCFC",
"7. c #40FCFC",
"8. c #20FCFC",
"9. c #00FCFC",
"0. c #00E4E4",
"q. c #00CCCC",
"w. c #00B4B4",
"e. c #009C9C",
"r. c #008484",
"t. c #007070",
"y. c #005858",
"u. c #004040",
"i. c #5CBCFC",
"p. c #40B0FC",
"a. c #20A8FC",
"s. c #009CFC",
"d. c #008CE4",
"f. c #007CCC",
"g. c #006CB4",
"h. c #005C9C",
"j. c #D8D8FC",
"k. c #B8BCFC",
"l. c #9C9CFC",
"z. c #7C80FC",
"x. c #5C60FC",
"c. c #4040FC",
"v. c #2024FC",
"b. c #0004FC",
"n. c #0000FC",
"m. c #0000EC",
"M. c #0000E0",
"N. c #0000D4",
"B. c #0000C8",
"V. c #0000BC",
"C. c #0000B0",
"Z. c #0000A4",
"A. c #000098",
"S. c #000088",
"D. c #00007C",
"F. c #000070",
"G. c #000064",
"H. c #000058",
"J. c #00004C",
"K. c #000040",
"L. c #282828",
"P. c #FCE034",
"I. c #FCD424",
"U. c #FCCC18",
"Y. c #FCC008",
"T. c #FCB400",
"R. c #B420FC",
"E. c #A800FC",
"W. c #9800E4",
"Q. c #8000CC",
"!. c #7400B4",
"~. c #60009C",
"^. c #500084",
"/. c #440070",
"(. c #340058",
"). c #280040",
"_. c #FCD8FC",
"`. c #FCB8FC",
"'. c #FC9CFC",
"]. c #FC7CFC",
"[. c #FC5CFC",
"{. c #FC40FC",
"}. c #FC20FC",
"|. c #FC00FC",
" X c #E000E4",
".X c #C800CC",
"XX c #B400B4",
"oX c #9C009C",
"OX c #840084",
"+X c #6C0070",
"@X c #580058",
"#X c #400040",
"$X c #FCE8DC",
"%X c #FCE0D0",
"&X c #FCD8C4",
"*X c #FCD4BC",
"=X c #FCCCB0",
"-X c #FCC4A4",
";X c #FCBC9C",
":X c #FCB890",
">X c #FCB080",
",X c #FCA470",
"<X c #FC9C60",
"1X c #F0945C",
"2X c #E88C58",
"3X c #DC8854",
"4X c #D08050",
"5X c #C87C4C",
"6X c #BC7848",
"7X c #B47044",
"8X c #A86840",
"9X c #A0643C",
"0X c #9C6038",
"qX c #905C34",
"wX c #885830",
"eX c #80502C",
"rX c #744C28",
"tX c #6C4824",
"yX c #5C4020",
"uX c #543C1C",
"iX c #483818",
"pX c #403018",
"aX c #382C14",
"sX c #28200C",
"dX c #600064",
"fX c #006464",
"gX c #006060",
"hX c #00001C",
"jX c #00002C",
"kX c #302410",
"lX c #480048",
"zX c #500050",
"xX c #000034",
"cX c gray11",
"vX c #4C4C4C",
"bX c gray36",
"nX c gray25",
"mX c gray19",
"MX c #343434",
"NX c #D8F4F4",
"BX c #B8E8E8",
"VX c #9CDCDC",
"CX c #74C8C8",
"ZX c #48C0C0",
"AX c #20B4B4",
"SX c #20B0B0",
"DX c #00A4A4",
"FX c #009898",
"GX c #008C8C",
"HX c #008484",
"JX c #007C7C",
"KX c #007878",
"LX c #007474",
"PX c #007070",
"IX c #006C6C",
"UX c #980088",
/* pixels */
"6 6 8 eXyXuXyX0XsXuXuXsX  8XtXuXeXkXiXuXkXsX  8XtXuXyX0XsXuXuXsX  8XtXuXeXkXiXuXsX  8X0XkXiXiXkXiXuXsX  8XyXuXyX0XsXuXuXsX4 6 6 ",
"6 6 8 qXtXyXeXqXiXtXtXaX  7XeXiXeXiXyXyXiXaX  7XeXyXeXqXiXtXtXaX  7XeXiXeXiXyXyXaX  7XqXkXpXyXiXyXyXaX  7XtXyXeXqXiXtXtXaX4 6 6 ",
"6 6 8 7XrXrXqX6XuXeXwXaX  3XqXtXqXyXwXrXyXaX  3XqXrXqX6XuXeXwXaX  3XqXtXqXyXwXrXaX  3X6XuXyXwXyXwXrXaX  3XrXrXqX6XuXeXwXaX4 6 6 ",
"6 6 8 7XrXtXrX8XyXeXtXiX  3XeXyXeXrXqXtXrXiX  3XeXtXrX8XyXeXtXiX  3XeXyXeXrXqXtXiX  3X8XtXyXeXrXqXtXiX  3XrXtXrX8XyXeXtXiX4 6 6 ",
"6 6 8 7XrXyXrXqXyXrXeXiX  3XwXuXeXuXeXrXuXiX  3XwXyXrXqXyXrXeXiX  3XwXuXeXuXeXrXiX  3XqXtXrXeXuXeXrXiX  3XrXyXrXqXyXrXeXiX4 6 6 ",
"6 6 8 8XqXtXtXeXuXtXrXiX  4XwXiXwXyXyXtXyXiX  4XwXtXtXeXuXtXrXiX  4XwXiXwXyXyXtXiX  4XeXtXrXrXyXyXtXiX  4XqXtXtXeXuXtXrXiX4 6 6 ",
"6 6 8 8XwXyXeXwXiXtXrXiX  4XwXyXwXtXyXtXtXiX  4XwXyXeXwXiXtXrXiX  4XwXyXwXtXyXtXiX  4XwXtXtXrXtXyXtXiX  4XwXyXeXwXiXtXrXiX4 6 6 ",
"6 6 8 8XwXtXqXqXuXtXeXiX  4XwXtXqXyXiXrXyXiX  4XwXtXqXqXuXtXeXiX  4XwXtXqXyXiXrXiX  4XqXrXiXuXyXiXrXiX  4XwXtXqXqXuXtXeXiX4 6 6 ",
"6 6 8 7XrXuX0XqXiXeXrXiX  3XqXrX8XtXiXtXtXiX  3XqXuX0XqXiXeXrXiX  3XqXrX8XtXiXtXiX  3XqXeXaXeXtXiXtXiX  3XrXuX0XqXiXeXrXiX4 6 6 ",
"6 6 8 8XrXtXqXqXiXqXqXaX  4XeXyX9XtXuXeXtXaX  4XeXtXqXqXiXqXqXaX  4XeXyX9XtXuXeXaX  4XqXtXsXwXtXuXeXaX  4XrXtXqXqXiXqXqXaX4 6 6 ",
"6 6 8 0XqXwX0X9XiXrXrXaX  5XwXyXqXyXuXtXyXaX  5XwXwX0X9XiXrXrXaX  5XwXyXqXyXuXtXaX  5X9XtXuXtXyXuXtXaX  5XqXwX0X9XiXrXrXaX4 6 6 ",
"6 6 8 8XqXqXwX8XuXrXrXaX  4XqXtX9XyXyXwXyXaX  4XqXqXwX8XuXrXrXaX  4XqXtX9XyXyXwXaX  4X8XrXuXwXyXyXwXaX  4XqXqXwX8XuXrXrXaX4 6 6 ",
"6 6 8 8XwXeXwX6XiXrXeXaX  4XqXrX8XyXtXrXyXaX  4XqXeXwX6XiXrXeXaX  4XqXrX8XyXtXrXaX  4X6XyXtXtXyXtXrXaX  4XwXeXwX6XiXrXeXaX4 6 6 ",
"6 6 8 0XeXrXqX8XyXeXeXiX  5XqXyXqXyXrXrXyXiX  5XqXrXqX8XyXeXeXiX  5XqXyXqXyXrXrXiX  5X8XpXuXrXyXrXrXiX  5XeXrXqX8XyXeXeXiX4 6 6 ",
"6 6 8 7XrXrXqX6XuXeXwXaX  3XqXtXqXyXwXrXyXaX  3XqXrXqX6XuXeXwXaX  3XqXtXqXyXwXrXaX  3X6XuXyXwXyXwXrXaX  3XrXrXqX6XuXeXwXaX4 6 6 ",
"6 6 8 7XrXtXrX8XyXeXtXiX  3XeXyXeXrXqXtXrXiX  3XeXtXrX8XyXeXtXiX  3XeXyXeXrXqXtXiX  3X8XtXyXeXrXqXtXiX  3XrXtXrX8XyXeXtXiX4 6 6 ",
"6 6 8 7XrXyXrXqXyXrXeXiX  3XwXuXeXuXeXrXuXiX  3XwXyXrXqXyXrXeXiX  3XwXuXeXuXeXrXiX  3XqXtXrXeXuXeXrXiX  3XrXyXrXqXyXrXeXiX4 6 6 ",
"6 6 8 8XqXtXtXeXuXtXrXiX  4XwXiXwXyXyXtXyXiX  4XwXtXtXeXuXtXrXiX  4XwXiXwXyXyXtXiX  4XeXtXrXrXyXyXtXiX  4XqXtXtXeXuXtXrXiX4 6 6 ",
"6 6 8 8XwXyXeXwXiXtXrXiX  4XwXyXwXtXyXtXtXiX  4XwXyXeXwXiXtXrXiX  4XwXyXwXtXyXtXiX  4XwXtXtXrXtXyXtXiX  4XwXyXeXwXiXtXrXiX4 6 6 ",
"6 6 8 8XwXtXqXqXuXtXeXiX  4XwXtXqXyXiXrXyXiX  4XwXtXqXqXuXtXeXiX  4XwXtXqXyXiXrXiX  4XqXrXiXuXyXiXrXiX  4XwXtXqXqXuXtXeXiX4 6 6 ",
"6 6 8 7XrXuX0XqXiXeXrXiX  3XqXrX8XtXiXtXtXiX  3XqXuX0XqXiXeXrXiX  3XqXrX8XtXiXtXiX  3XqXeXaXeXtXiXtXiX  3XrXuX0XqXiXeXrXiX4 6 6 ",
"6 6 8 8XrXtXqXqXiXqXqXaX  4XeXyX9XtXuXeXtXaX  4XeXtXqXqXiXqXqXaX  4XeXyX9XtXuXeXaX  4XqXtXsXwXtXuXeXaX  4XrXtXqXqXiXqXqXaX4 6 6 ",
"6 6 8 7XeXiX9X0XyXwX8XaX  3XeXrXwXyXiXwXyXaX  3XeXiX9X0XyXwX8XaX  3XeXrXwXyXiXwXaX  3X0XwXsXeXyXiXwXaX  3XeXiX9X0XyXwX8XaX4 6 6 ",
"6 6 8 7XrXrXrX0XtXrX9XaX  3XwXtXwXeXuXwXeXaX  3XwXrXrX0XtXrX9XaX  3XwXtXwXeXuXwXaX  3X0XqXkXeXeXuXwXaX  3XrXrXrX0XtXrX9XaX4 6 6 ",
"6 6 8 7XyXuXrX0XuXtXqXaX  3XeXyXwXtXyXqXtXaX  3XeXuXrX0XuXtXqXaX  3XeXyXwXtXyXqXaX  3X0X9XtXrXtXyXqXaX  3XyXuXrX0XuXtXqXaX4 6 6 ",
"6 6 8 8XyXrXtXqXaXrX0XpX  4XrXrXqXyXyXqXyXpX  4XrXrXtXqXaXrX0XpX  4XrXrXqXyXyXqXpX  4XqXqXwXeXyXyXqXpX  4XyXrXtXqXaXrX0XpX4 6 6 ",
"6 6 8 8XeXyXeXeXtXtXqXpX  4XwXrX0XyXyXwXyXpX  4XwXyXeXeXtXtXqXpX  4XwXrX0XyXyXwXpX  4XeXqXeXwXyXyXwXpX  4XeXyXeXeXtXtXqXpX4 6 6 ",
"6 6 8 7XyXtXqXrXuXtX7XiX  3X8XrX0XuXtXwXuXiX  3X8XtXqXrXuXtX7XiX  3X8XrX0XuXtXwXiX  3XrXqXtX6XuXtXwXiX  3XyXtXqXrXuXtX7XiX4 6 6 ",
"6 6 8 0XyXuXwXwXyXrX7XiX  5X9XqXeXtXrXwXtXiX  5X9XuXwXwXyXrX7XiX  5X9XqXeXtXrXwXiX  5XwX9XtX5XtXrXwXiX  5XyXuXwXwXyXrX7XiX4 6 6 ",
"6 6 8 0XtXrXrXrXyXwX9XiX  5X9XtXtXwXwXwXwXiX  5X9XrXrXrXyXwX9XiX  5X9XtXtXwXwXwXiX  5XrX8XtX5XwXwXwXiX  5XtXrXrXrXyXwX9XiX4 6 6 ",
"6 6 8 0XtXtXwXwXtXtX9XaX  5XqXeXtXwX0XeXwXaX  5XqXtXwXwXtXtX9XaX  5XqXeXtXwX0XeXaX  5XwX8XtX6XwX0XeXaX  5XtXtXwXwXtXtX9XaX4 6 6 ",
"6 6 8 0XrXtXeXeXyXrXeXaX  5X9XeXeXeXeXwXeXaX  5X9XtXeXeXyXrXeXaX  5X9XeXeXeXeXwXaX  5XeXwXtX8XeXeXwXaX  5XrXtXeXeXyXrXeXaX4 6 6 ",
"6 6 8 0XuXtXrXeXyXuXwXpX  5XwXeXqXqXeX9XqXpX  5XwXtXrXeXyXuXwXpX  5XwXeXqXqXeX9XpX  5XeXwXyX0XqXeX9XpX  5XuXtXrXeXyXuXwXpX4 6 6 ",
"6 6 8 0XuXrXeXtXtXtXqXiX  5XqXeX0X5XrX8X5XiX  5XqXrXeXtXtXtXqXiX  5XqXeX0X5XrX8XiX  5XtXqXiXqX5XrX8XiX  5XuXrXeXtXtXtXqXiX4 6 6 ",
"6 6 8 7XtXtXtXeXrXtX7XiX  3X9XtX0X7XyX9X7XiX  3X9XtXtXeXrXtX7XiX  3X9XtX0X7XyX9XiX  3XeX9XuX7X7XyX9XiX  3XtXtXtXeXrXtX7XiX4 6 6 ",
"6 6 8 7XrXwXeXwXtXrX6XiX  3XqXeX0X9XtX9X9XiX  3XqXwXeXwXtXrX6XiX  3XqXeX0X9XtX9XiX  3XwX8XtX6X9XtX9XiX  3XrXwXeXwXtXrX6XiX4 6 6 ",
"6 6 8 8XeX8XrXwXwX9X8XaX  4XwXrXwXwXpXwXwXaX  4XwX8XrXwXwX9X8XaX  4XwXrXwXwXpXwXaX  4XwX8XrX9XwXpXwXaX  4XeX8XrXwXwX9X8XaX4 6 6 ",
"6 6 8 8XyX8XeX0XrXrXqXiX  4XeXyXwXrXyXwXrXiX  4XeX8XeX0XrXrXqXiX  4XeXyXwXrXyXwXiX  4X0X7XeX9XrXyXwXiX  4XyX8XeX0XrXrXqXiX4 6 6 ",
"6 6 8 8XrXqXwX0XtXwX9XaX  4XtXtXtXrXeXqXrXaX  4XtXqXwX0XtXwX9XaX  4XtXtXtXrXeXqXaX  4X0X8XwX0XrXeXqXaX  4XrXqXwX0XtXwX9XaX4 6 6 ",
"6 6 8 7XrX8XrXqXtXtXqXiX  3XrXeXwXwXwX9XwXiX  3XrX8XrXqXtXtXqXiX  3XrXeXwXwXwX9XiX  3XqX8XwX0XwXwX9XiX  3XrX8XrXqXtXtXqXiX4 6 6 ",
"6 6 8 0XtXqX0X0XtXtX5XiX  5XwX9XeXqX9XqXqXiX  5XwXqX0X0XtXtX5XiX  5XwX9XeXqX9XqXiX  5X0X9XeX8XqX9XqXiX  5XtXqX0X0XtXtX5XiX4 6 6 ",
"6 6 8 0XrXeXeX0XeXyX7XiX  5X0X7XqX8X8XqX8XiX  5X0XeXeX0XeXyX7XiX  5X0X7XqX8X8XqXiX  5X0X7XrX7X8X8XqXiX  5XrXeXeX0XeXyX7XiX4 6 6 ",
"6 6 8 0X9XrXrXwXrXrX5XiX  5X8XqXrX9X8XeX9XiX  5X8XrXrXwXrXrX5XiX  5X8XqXrX9X8XeXiX  5XwX6XeX8X9X8XeXiX  5X9XrXrXwXrXrX5XiX4 6 6 ",
"6 6 8 0XqXrXtXrXtXtX6XiX  5X9XeXtX8XqXwX8XiX  5X9XrXtXrXtXtX6XiX  5X9XeXtX8XqXwXiX  5XrX7XwX5X8XqXwXiX  5XqXrXtXrXtXtX6XiX4 6 6 ",
"6 6 8 7XwXeXrXyX0XwX6XpX  3XwXrXtX0XwXrX0XpX  3XwXeXrXyX0XwX6XpX  3XwXrXtX0XwXrXpX  3XyX9XeX6X0XwXrXpX  3XwXeXrXyX0XwX6XpX4 6 6 ",
"6 6 8 7XwX8XwXpX8XrX7XaX  3XeXtXrXwXwXrXwXaX  3XeX8XwXpX8XrX7XaX  3XeXtXrXwXwXrXaX  3XpXqXeX6XwXwXrXaX  3XwX8XwXpX8XrX7XaX4 6 6 ",
"6 6 8 8XrXqXqXuX8XrX8XpX  4XrXtXrXwXrXeXwXpX  4XrXqXqXuX8XrX8XpX  4XrXtXrXwXrXeXpX  4XuXqXrX6XwXrXeXpX  4XrXqXqXuX8XrX8XpX4 6 6 ",
"6 6 8 8XwX8XwXtXqXwX5XaX  4XeXwXrXqXeXqXqXaX  4XeX8XwXtXqXwX5XaX  4XeXwXrXqXeXqXaX  4XtXqXwX6XqXeXqXaX  4XwX8XwXtXqXwX5XaX4 6 6 ",
"6 6 8 8XrXwXtXrXeXrX5XaX  4X0XwXqXwXqXrXwXaX  4X0XwXtXrXeXrX5XaX  4X0XwXqXwXqXrXaX  4XrX9XwX6XwXqXrXaX  4XrXwXtXrXeXrX5XaX4 6 6 ",
"6 6 8 7XtXqXtXeXtXrX5XaX  3X8XqXrXwX7XrXwXaX  3X8XqXtXeXtXrX5XaX  3X8XqXrXwX7XrXaX  3XeX8XqX5XwX7XrXaX  3XtXqXtXeXtXrX5XaX4 6 6 ",
"6 6 8 7XrXeXyXyXwXrX6XaX  3XqXwXtX9X9XeX9XaX  3XqXeXyXyXwXrX6XaX  3XqXwXtX9X9XeXaX  3XyX0XqX6X9X9XeXaX  3XrXeXyXyXwXrX6XaX4 6 6 ",
"6 6 8 0XrXwXtXtXwXtX9XpX  5XwXwXtX9XqXrX9XpX  5XwXwXtXtXwXtX9XpX  5XwXwXtX9XqXrXpX  5XtX9X0X6X9XqXrXpX  5XrXwXtXtXwXtX9XpX4 6 6 ",
"6 6 8 0XwXeXwXtXeXuXqXpX  5XrXrXtX8X9XeX8XpX  5XrXeXwXtXeXuXqXpX  5XrXrXtX8X9XeXpX  5XtX9XwX8X8X9XeXpX  5XwXeXwXtXeXuXqXpX4 6 6 ",
"6 6 8 0XtXrXwXyXyXrXwXpX  5XeXqXtX9X9XrX9XpX  5XeXrXwXyXyXrXwXpX  5XeXqXtX9X9XrXpX  5XyX9XeX8X9X9XrXpX  5XtXrXwXyXyXrXwXpX4 6 6 ",
"6 6 8 8XyXtXwXuXtXrXqXpX  4XwX0XtX9X9XtX9XpX  4XwXtXwXuXtXrXqXpX  4XwX0XtX9X9XtXpX  4XuX7XrX8X9X9XtXpX  4XyXtXwXuXtXrXqXpX4 6 6 ",
"6 6 8 8XyXtXrXrXqXeXqXaX  4XrXwXtXeX9XtXeXaX  4XrXtXrXrXqXeXqXaX  4XrXwXtXeX9XtXaX  4XrX8XwX6XeX9XtXaX  4XyXtXrXrXqXeXqXaX4 6 6 ",
"6 6 8 8XyXtXrXrXeXrXeXaX  4XrXeXyXqX9XrXqXaX  4XrXtXrXrXeXrXeXaX  4XrXeXyXqX9XrXaX  4XrX8XqX6XqX9XrXaX  4XyXtXrXrXeXrXeXaX4 6 6 ",
"6 6 8 8XyXtXtXrXeX0XrXaX  4XeXwXyXqX6XrXqXaX  4XeXtXtXrXeX0XrXaX  4XeXwXyXqX6XrXaX  4XrX8X7X7XqX6XrXaX  4XyXtXtXrXeX0XrXaX4 6 6 ",
"6 6 8 7XrXwXtXtXtX8XeXpX  3XrXqXtX0X6XyX0XpX  3XrXwXtXtXtX8XeXpX  3XrXqXtX0X6XyXpX  3XtXwX0X7X0X6XyXpX  3XrXwXtXtXtX8XeXpX4 6 6 ",
"6 6 8 7XwX0XrXtXeXwXtXpX  3XrXwXeX0X7XtX0XpX  3XrX0XrXtXeXwXtXpX  3XrXwXeX0X7XtXpX  3XtXqX8X7X0X7XtXpX  3XwX0XrXtXeXwXtXpX4 6 6 ",
"6 6 8 7XeX8XtXtXqXwXrXpX  3XyXqXeX9X7XyX9XpX  3XyX8XtXtXqXwXrXpX  3XyXqXeX9X7XyXpX  3XtX9X8X5X9X7XyXpX  3XeX8XtXtXqXwXrXpX4 6 6 ",
"6 6 8 7XeXqXtXtXqXwXrXiX  3XtXwXeX0XqXrX0XiX  3XtXqXtXtXqXwXrXiX  3XtXwXeX0XqXrXiX  3XtX9X8X3X0XqXrXiX  3XeXqXtXtXqXwXrXiX4 6 6 ",
"6 6 8 eXrXeXuXuXrXtXyXsX  8XpXeXrXeX0XrXeXsX  8XpXeXuXuXrXtXyXsX  8XpXeXrXeX0XrXsX  8XuX6XeX8XeX0XrXsX  8XrXeXuXuXrXtXyXsX4 6 6 ",
"6 6 8 rXuXyXaXsXaXaXpX    0XaXyXaXuXyXaX      0XaXyXaXsXaXaXpX    0XaXyXaXuXyXaX    0XsXyXeXwXuXyXaX    0XuXyXaXsXaXaXpX  4 6 6 "
};
